:SAMPLES-PER-SECOND 30
:FULLY-SPECIFIED
:DEGREES
31
root  -37.8443 38.8302 0.715904 -178.505 81.2238 -174.712
RightUpLeg  -24.6907 -1.02311 0.726859
RightLeg  16.8093 12.3218 1.22032
RightFoot  1.7102 -0.737856 5.65362
RightToes  1.80444e-009 -3.18055e-015 8.94531e-016
Spine  -2.56836 -4.71469 -8.25237
Spine1  11.4889 -6.96689 7.36845
HEad  3.35672 -0.482661 1.87257
LeftShoulder1  0 -2.69403e-036 -1.28585e-037
LeftArm  -8.70553 10.3601 -77.7363
LeftForeArm  -133.838 -68.8674 141.635
LeftHand  1.69499 11.914 1.40158
RightShoulder  -2.48481e-017 0 -8.08114e-019
RightArm  -6.51003 -2.30903 71.4222
RightForeArm  -107.965 59.8977 -127.957
RightHand  2.07129 -15.2531 -7.16084
LeftUpLeg  0.381605 -5.82712 -3.19134
LeftLeg  21.7894 -7.82249 0.655782
LeftFoot  -16.3234 -0.00951294 1.51661
LeftToes  -1.10049e-010 -1.44524e-010 4.8374e-011
32
root  -36.3813 38.5673 0.748578 -178.855 79.9803 -175.319
RightUpLeg  -24.7308 1.43058 -1.19558
RightLeg  4.33277 9.43047 0.95215
RightFoot  2.25352 -0.827174 6.11758
RightToes  1.80444e-009 -3.18055e-015 8.94531e-016
Spine  -2.44429 -5.08785 -9.15542
Spine1  11.5223 -7.7691 9.16339
HEad  3.64537 -0.972729 1.88778
LeftShoulder1  0 -2.69403e-036 -1.28585e-037
LeftArm  -9.79051 0.119354 -76.8373
LeftForeArm  -142.23 -63.7247 153.929
LeftHand  1.71124 11.7277 2.48318
RightShoulder  -2.48481e-017 0 -8.08114e-019
RightArm  -7.81477 1.27449 69.4853
RightForeArm  -114.806 57.0538 -137.709
RightHand  2.20981 -15.5474 -8.24332
LeftUpLeg  2.26874 -7.62279 -3.09062
LeftLeg  22.4135 -6.97833 0.932362
LeftFoot  -18.4985 -0.0211968 0.80128
LeftToes  -1.10049e-010 -1.44524e-010 4.8374e-011
33
root  -34.8738 38.0661 0.828511 177.924 79.0886 -177.728
RightUpLeg  -24.2733 1.90582 -2.46987
RightLeg  -3.43355 5.80098 0.756793
RightFoot  1.27592 -0.742814 5.87207
RightToes  1.80444e-009 -3.18055e-015 8.94531e-016
Spine  -1.20644 -5.14844 -10.3486
Spine1  11.9589 -8.29576 10.3064
HEad  2.85707 -1.10669 2.32682
LeftShoulder1  0 -2.69403e-036 -1.28585e-037
LeftArm  -10.7597 -9.92659 -75.5101
LeftForeArm  -145.027 -59.3215 160.475
LeftHand  1.57817 10.4358 5.45517
RightShoulder  -2.48481e-017 0 -8.08114e-019
RightArm  -9.1749 5.81281 68.029
RightForeArm  -118.255 54.2975 -144.312
RightHand  2.40077 -15.8633 -9.81544
LeftUpLeg  4.72719 -8.17589 -3.16578
LeftLeg  24.631 -7.09533 1.11107
LeftFoot  -21.304 0.00365102 0.929418
LeftToes  -1.10049e-010 -1.44524e-010 4.8374e-011
34
root  -33.3672 37.4069 0.9294 174.493 78.8999 -179.694
RightUpLeg  -24.4883 1.01035 -2.78322
RightLeg  -3.55375 1.69957 1.19432
RightFoot  0.226204 -0.498903 4.20259
RightToes  1.80444e-009 -3.18055e-015 8.94531e-016
Spine  0.937698 -4.81836 -10.8143
Spine1  12.6101 -8.47265 10.6886
HEad  1.46416 -0.704871 2.79974
LeftShoulder1  0 -2.69403e-036 -1.28585e-037
LeftArm  -11.7018 -18.5416 -73.5446
LeftForeArm  -145.733 -55.7307 164.427
LeftHand  1.33463 8.90193 8.92061
RightShoulder  -2.48481e-017 0 -8.08114e-019
RightArm  -10.1582 10.8767 67.5128
RightForeArm  -118.852 52.0062 -148.568
RightHand  2.60277 -16.1679 -11.4239
LeftUpLeg  7.13897 -7.27044 -2.77907
LeftLeg  28.4544 -7.99413 1.09249
LeftFoot  -24.7128 0.0283062 1.01084
LeftToes  -1.10049e-010 -1.44524e-010 4.8374e-011
35
root  -31.8558 36.5723 1.02754 173.596 79.2801 -179.343
RightUpLeg  -26.7936 0.0627434 -2.18312
RightLeg  3.74782 -1.59044 0.357591
RightFoot  2.14703 -0.230307 1.69697
RightToes  1.80444e-009 -3.18055e-015 8.94531e-016
Spine  3.60339 -4.3166 -9.54406
Spine1  12.5598 -8.15322 10.2015
HEad  0.104521 0.0373961 2.92364
LeftShoulder1  0 -2.69403e-036 -1.28585e-037
LeftArm  -12.3953 -24.9401 -71.429
LeftForeArm  -145.1 -53.1219 166.744
LeftHand  1.19522 8.17876 11.1074
RightShoulder  -2.48481e-017 0 -8.08114e-019
RightArm  -10.2732 15.663 67.6895
RightForeArm  -117.637 50.2157 -151.317
RightHand  2.72937 -16.2971 -12.5238
LeftUpLeg  7.78233 -5.23293 -1.15301
LeftLeg  35.5592 -10.296 0.136162
LeftFoot  -26.4166 -0.325144 -1.92458
LeftToes  -1.10049e-010 -1.44524e-010 4.8374e-011
36
root  -30.4127 35.6001 1.13781 177.049 79.5498 -175.107
RightUpLeg  -30.7337 -2.66538 0.50003
RightLeg  14.0417 0.402269 -2.00782
RightFoot  7.64121 0.156919 -0.816872
RightToes  1.80444e-009 -3.18055e-015 8.94531e-016
Spine  6.96032 -4.06253 -6.44971
Spine1  11.4999 -7.35912 8.92738
HEad  -1.41518 0.659208 2.94267
LeftShoulder1  0 -2.69403e-036 -1.28585e-037
LeftArm  -12.4237 -29.4564 -69.9687
LeftForeArm  -142.629 -51.636 167.768
LeftHand  1.15837 8.01174 11.6927
RightShoulder  -2.48481e-017 0 -8.08114e-019
RightArm  -9.71817 19.7521 67.9394
RightForeArm  -115.572 48.8998 -153.06
RightHand  2.76518 -16.1771 -13.2089
LeftUpLeg  5.41 -3.32302 1.81504
LeftLeg  47.1824 -12.8518 -2.05049
LeftFoot  -21.2225 -0.506928 -6.93613
LeftToes  -1.10049e-010 -1.44524e-010 4.8374e-011
37
root  -29.243 34.4852 1.26418 -174.914 79.4678 -166.259
RightUpLeg  -35.243 -4.10302 3.10766
RightLeg  24.9838 3.23918 -3.19553
RightFoot  11.5394 0.612861 -2.80241
RightToes  1.80444e-009 -3.18055e-015 8.94531e-016
Spine  11.4391 -4.06822 -1.99836
Spine1  10.2725 -6.30133 7.28658
HEad  -3.58218 0.852076 3.20645
LeftShoulder1  0 -2.69403e-036 -1.28585e-037
LeftArm  -11.655 -32.9619 -69.6518
LeftForeArm  -138.342 -51.1869 167.789
LeftHand  1.01352 7.41918 11.9271
RightShoulder  -2.48481e-017 0 -8.08114e-019
RightArm  -9.11905 23.3016 68.0879
RightForeArm  -113.244 48.0975 -153.972
RightHand  2.79272 -15.9803 -14.016
LeftUpLeg  -0.50863 -2.61448 5.36486
LeftLeg  62.3132 -13.3038 -3.02173
LeftFoot  -8.24478 0.384899 -8.81227
LeftToes  -1.10049e-010 -1.44524e-010 4.8374e-011
38
root  -28.3997 33.381 1.36899 -165.471 79.1797 -155.576
RightUpLeg  -38.7792 -5.65503 5.90588
RightLeg  34.7575 5.63422 -3.19171
RightFoot  10.406 0.867597 -4.19318
RightToes  1.80444e-009 -3.18055e-015 8.94531e-016
Spine  16.9572 -4.23617 2.579
Spine1  9.38267 -5.18845 6.01103
HEad  -6.12818 0.703081 3.39324
LeftShoulder1  0 -2.69403e-036 -1.28585e-037
LeftArm  -10.4159 -35.7226 -70.4095
LeftForeArm  -134.426 -51.3153 167.384
LeftHand  0.774464 6.48581 12.794
RightShoulder  -2.48481e-017 0 -8.08114e-019
RightArm  -8.519 26.5627 68.5582
RightForeArm  -110.673 47.7892 -154.171
RightHand  2.85077 -15.8194 -15.1062
LeftUpLeg  -8.41926 -2.81531 8.40292
LeftLeg  76.7917 -12.8499 -1.9927
LeftFoot  1.52104 0.899795 -7.03658
LeftToes  -1.10049e-010 -1.44524e-010 4.8374e-011
39
root  -27.6498 32.686 1.45779 -159.927 79.4443 -148.592
RightUpLeg  -40.0332 -7.26819 7.83695
RightLeg  41.6154 7.20252 -2.79212
RightFoot  6.23851 0.833518 -4.90989
RightToes  1.80444e-009 -3.18055e-015 8.94531e-016
Spine  22.7857 -4.06135 5.10363
Spine1  8.27152 -4.1317 5.33087
HEad  -8.33004 0.430236 3.00274
LeftShoulder1  0 -2.69403e-036 -1.28585e-037
LeftArm  -9.05071 -37.3855 -71.8818
LeftForeArm  -132.811 -51.4465 167.153
LeftHand  0.673769 6.1193 13.517
RightShoulder  -2.48481e-017 0 -8.08114e-019
RightArm  -7.3628 29.3774 69.6866
RightForeArm  -107.581 47.7888 -153.911
RightHand  2.87929 -15.608 -16.0332
LeftUpLeg  -16.3718 -2.64214 9.60843
LeftLeg  86.725 -12.8117 -0.474461
LeftFoot  1.12691 0.530452 -4.07854
LeftToes  -1.10049e-010 -1.44524e-010 4.8374e-011
